<?xml version="1.0" encoding="UTF-8"?>
<!DOCTYPE svg PUBLIC "-//W3C//DTD SVG 1.1//EN" "http://www.w3.org/Graphics/SVG/1.1/DTD/svg11.dtd">
<svg xmlns="http://www.w3.org/2000/svg" version="1.1" width="500px" height="500px" style="shape-rendering:geometricPrecision; text-rendering:geometricPrecision; image-rendering:optimizeQuality; fill-rule:evenodd; clip-rule:evenodd" xmlns:xlink="http://www.w3.org/1999/xlink">
<g><path style="opacity:1" fill="#151515" d="M 270.5,62.5 C 270.833,63.5 271.5,64.1667 272.5,64.5C 276.995,72.4177 277.662,80.7511 274.5,89.5C 273.094,89.9731 272.427,90.9731 272.5,92.5C 270.092,97.2421 266.426,100.575 261.5,102.5C 261.5,112.5 261.5,122.5 261.5,132.5C 312.425,135.332 353.091,156.999 383.5,197.5C 383.738,199.404 384.738,200.738 386.5,201.5C 388.664,203.822 390.331,206.489 391.5,209.5C 391.427,211.027 392.094,212.027 393.5,212.5C 394.6,213.605 395.267,214.938 395.5,216.5C 395.427,218.027 396.094,219.027 397.5,219.5C 418.572,217.46 432.738,226.46 440,246.5C 440.667,266.833 440.667,287.167 440,307.5C 434.188,326.475 421.354,335.475 401.5,334.5C 398.979,336.03 397.979,338.364 398.5,341.5C 387.391,370.047 369.724,393.713 345.5,412.5C 344.305,412.678 343.138,413.011 342,413.5C 340.189,412.576 340.355,411.743 342.5,411C 341.584,410.626 340.75,410.126 340,409.5C 339.457,411.631 338.624,413.631 337.5,415.5C 336.197,414.282 335.197,414.615 334.5,416.5C 332.162,414.989 331.496,415.323 332.5,417.5C 331.833,418.5 331.167,419.5 330.5,420.5C 328.034,421.123 325.701,421.957 323.5,423C 325.935,423.075 326.602,423.908 325.5,425.5C 279.044,450.08 231.711,451.746 183.5,430.5C 183.027,429.094 182.027,428.427 180.5,428.5C 177.515,427.674 174.849,426.341 172.5,424.5C 171.859,423.518 171.193,422.518 170.5,421.5C 171.83,418.151 171.33,417.818 169,420.5C 168.632,419.09 167.799,418.09 166.5,417.5C 164.872,418.535 163.205,418.535 161.5,417.5C 131.241,397.658 110.074,370.658 98,336.5C 83.2477,335.956 71.581,329.622 63,317.5C 61.3672,314.319 60.0339,310.986 59,307.5C 58.3333,287.5 58.3333,267.5 59,247.5C 59.6077,245.846 60.1077,244.179 60.5,242.5C 61.9063,242.027 62.573,241.027 62.5,239.5C 63.7589,235.975 65.7589,232.975 68.5,230.5C 70.7488,229.92 72.4154,228.587 73.5,226.5C 73.9731,225.094 74.9731,224.427 76.5,224.5C 78.0269,224.573 79.0269,223.906 79.5,222.5C 86.6344,219.587 93.9677,218.92 101.5,220.5C 113.378,194.278 131.711,173.612 156.5,158.5C 158.027,158.573 159.027,157.906 159.5,156.5C 165.697,152.213 172.364,148.88 179.5,146.5C 181.027,146.573 182.027,145.906 182.5,144.5C 183.167,144.5 183.833,144.5 184.5,144.5C 186.027,144.573 187.027,143.906 187.5,142.5C 196.863,139.026 206.53,136.693 216.5,135.5C 219.152,135.59 221.485,134.924 223.5,133.5C 225.5,133.5 227.5,133.5 229.5,133.5C 232.167,133.5 234.833,133.5 237.5,133.5C 238.143,122.448 237.476,111.781 235.5,101.5C 228.942,98.1002 224.775,92.7669 223,85.5C 220.747,65.5811 229.58,54.2478 249.5,51.5C 258.43,51.7954 265.43,55.4621 270.5,62.5 Z M 351.5,344.5 C 349.973,344.427 348.973,345.094 348.5,346.5C 344.299,349.1 339.966,351.434 335.5,353.5C 333.973,353.427 332.973,354.094 332.5,355.5C 325.933,356.99 319.267,358.156 312.5,359C 290.488,359.778 268.488,359.612 246.5,358.5C 241.074,358.883 236.408,360.883 232.5,364.5C 230.973,364.427 229.973,365.094 229.5,366.5C 215.414,374.96 201.247,383.293 187,391.5C 185.488,390.743 184.154,389.743 183,388.5C 182.667,378.833 182.333,369.167 182,359.5C 162.085,355.96 146.252,345.96 134.5,329.5C 134.573,327.973 133.906,326.973 132.5,326.5C 129.32,319.796 126.82,312.796 125,305.5C 124.333,287.5 124.333,269.5 125,251.5C 131.331,222.169 149.164,204.669 178.5,199C 225.833,198.333 273.167,198.333 320.5,199C 350.37,205.352 368.204,223.518 374,253.5C 374.667,270.5 374.667,287.5 374,304.5C 371.264,320.566 363.764,333.899 351.5,344.5 Z"/></g>
<g><path style="opacity:0.004" fill="#cccccc" d="M 270.5,62.5 C 271.833,62.5 272.5,63.1667 272.5,64.5C 271.5,64.1667 270.833,63.5 270.5,62.5 Z"/></g>
<g><path style="opacity:0.055" fill="#c0c0c0" d="M 274.5,89.5 C 274.573,91.0269 273.906,92.0269 272.5,92.5C 272.427,90.9731 273.094,89.9731 274.5,89.5 Z"/></g>
<g><path style="opacity:0.303" fill="#7c7c7c" d="M 235.5,101.5 C 237.476,111.781 238.143,122.448 237.5,133.5C 234.833,133.5 232.167,133.5 229.5,133.5C 231.607,132.532 233.941,132.198 236.5,132.5C 236.808,122.085 236.475,111.751 235.5,101.5 Z"/></g>
<g><path style="opacity:0.212" fill="#868686" d="M 223.5,133.5 C 221.485,134.924 219.152,135.59 216.5,135.5C 218.515,134.076 220.848,133.41 223.5,133.5 Z"/></g>
<g><path style="opacity:0.443" fill="#a2a2a2" d="M 187.5,142.5 C 187.027,143.906 186.027,144.573 184.5,144.5C 184.973,143.094 185.973,142.427 187.5,142.5 Z"/></g>
<g><path style="opacity:0.455" fill="#969696" d="M 182.5,144.5 C 182.027,145.906 181.027,146.573 179.5,146.5C 179.973,145.094 180.973,144.427 182.5,144.5 Z"/></g>
<g><path style="opacity:0.251" fill="#969696" d="M 159.5,156.5 C 159.027,157.906 158.027,158.573 156.5,158.5C 156.973,157.094 157.973,156.427 159.5,156.5 Z"/></g>
<g><path style="opacity:0.549" fill="#898989" d="M 383.5,197.5 C 385.262,198.262 386.262,199.596 386.5,201.5C 384.738,200.738 383.738,199.404 383.5,197.5 Z"/></g>
<g><path style="opacity:0.165" fill="#a2a2a2" d="M 391.5,209.5 C 392.906,209.973 393.573,210.973 393.5,212.5C 392.094,212.027 391.427,211.027 391.5,209.5 Z"/></g>
<g><path style="opacity:0.075" fill="#c1c1c1" d="M 395.5,216.5 C 396.906,216.973 397.573,217.973 397.5,219.5C 396.094,219.027 395.427,218.027 395.5,216.5 Z"/></g>
<g><path style="opacity:0.396" fill="#a2a2a2" d="M 79.5,222.5 C 79.0269,223.906 78.0269,224.573 76.5,224.5C 76.9731,223.094 77.9731,222.427 79.5,222.5 Z"/></g>
<g><path style="opacity:0.6" fill="#656565" d="M 73.5,226.5 C 72.4154,228.587 70.7488,229.92 68.5,230.5C 69.5846,228.413 71.2512,227.08 73.5,226.5 Z"/></g>
<g><path style="opacity:0.082" fill="#bababa" d="M 62.5,239.5 C 62.573,241.027 61.9063,242.027 60.5,242.5C 60.427,240.973 61.0937,239.973 62.5,239.5 Z"/></g>
<g><path style="opacity:0.999" fill="#191919" d="M 171.5,275.5 C 171.337,270.453 171.671,265.453 172.5,260.5C 172.66,258.847 173.326,257.514 174.5,256.5C 176.5,255.167 178.167,253.5 179.5,251.5C 183.232,248.096 187.732,246.429 193,246.5C 210.623,248.134 218.29,257.801 216,275.5C 210.198,289.999 199.698,295.166 184.5,291C 177.225,288.274 172.892,283.108 171.5,275.5 Z"/></g>
<g><path style="opacity:1" fill="#181818" d="M 326.5,260.5 C 327.329,265.453 327.663,270.453 327.5,275.5C 322.167,289.335 312.167,294.502 297.5,291C 285.072,285.18 280.406,275.68 283.5,262.5C 284.473,262.013 285.473,261.513 286.5,261C 285.167,260 285.167,259 286.5,258C 287.766,257.691 288.933,257.191 290,256.5C 290.324,254.305 291.157,252.305 292.5,250.5C 304.344,243.197 315.011,244.863 324.5,255.5C 325.456,257.075 326.123,258.742 326.5,260.5 Z"/></g>
<g><path style="opacity:0.486" fill="#9e9e9e" d="M 179.5,251.5 C 178.167,253.5 176.5,255.167 174.5,256.5C 175.167,253.833 176.833,252.167 179.5,251.5 Z"/></g>
<g><path style="opacity:0.976" fill="#504f4f" d="M 292.5,250.5 C 291.157,252.305 290.324,254.305 290,256.5C 288.933,257.191 287.766,257.691 286.5,258C 285.167,259 285.167,260 286.5,261C 285.473,261.513 284.473,262.013 283.5,262.5C 284.58,256.986 287.58,252.986 292.5,250.5 Z"/></g>
<g><path style="opacity:0.455" fill="#717171" d="M 326.5,260.5 C 327.222,260.918 327.722,261.584 328,262.5C 328.814,267.02 328.647,271.354 327.5,275.5C 327.663,270.453 327.329,265.453 326.5,260.5 Z"/></g>
<g><path style="opacity:0.42" fill="#6d6d6d" d="M 172.5,260.5 C 171.671,265.453 171.337,270.453 171.5,275.5C 170.353,271.354 170.186,267.02 171,262.5C 171.278,261.584 171.778,260.918 172.5,260.5 Z"/></g>
<g><path style="opacity:0.063" fill="#c5c5c5" d="M 132.5,326.5 C 133.906,326.973 134.573,327.973 134.5,329.5C 133.094,329.027 132.427,328.027 132.5,326.5 Z"/></g>
<g><path style="opacity:0.816" fill="#686868" d="M 401.5,334.5 C 400.344,336.824 399.344,339.157 398.5,341.5C 397.979,338.364 398.979,336.03 401.5,334.5 Z"/></g>
<g><path style="opacity:0.361" fill="#909090" d="M 351.5,344.5 C 351.027,345.906 350.027,346.573 348.5,346.5C 348.973,345.094 349.973,344.427 351.5,344.5 Z"/></g>
<g><path style="opacity:0.471" fill="#8b8b8b" d="M 335.5,353.5 C 335.027,354.906 334.027,355.573 332.5,355.5C 332.973,354.094 333.973,353.427 335.5,353.5 Z"/></g>
<g><path style="opacity:0.373" fill="#9c9c9c" d="M 232.5,364.5 C 232.027,365.906 231.027,366.573 229.5,366.5C 229.973,365.094 230.973,364.427 232.5,364.5 Z"/></g>
<g><path style="opacity:0.936" fill="#323232" d="M 345.5,412.5 C 339.378,417.613 332.711,421.946 325.5,425.5C 326.602,423.908 325.935,423.075 323.5,423C 325.701,421.957 328.034,421.123 330.5,420.5C 331.167,419.5 331.833,418.5 332.5,417.5C 331.496,415.323 332.162,414.989 334.5,416.5C 335.197,414.615 336.197,414.282 337.5,415.5C 338.624,413.631 339.457,411.631 340,409.5C 340.75,410.126 341.584,410.626 342.5,411C 340.355,411.743 340.189,412.576 342,413.5C 343.138,413.011 344.305,412.678 345.5,412.5 Z"/></g>
<g><path style="opacity:0.956" fill="#393939" d="M 161.5,417.5 C 163.205,418.535 164.872,418.535 166.5,417.5C 167.799,418.09 168.632,419.09 169,420.5C 171.33,417.818 171.83,418.151 170.5,421.5C 171.193,422.518 171.859,423.518 172.5,424.5C 168.317,422.913 164.65,420.579 161.5,417.5 Z"/></g>
<g><path style="opacity:0.161" fill="#afafaf" d="M 180.5,428.5 C 182.027,428.427 183.027,429.094 183.5,430.5C 181.973,430.573 180.973,429.906 180.5,428.5 Z"/></g>
</svg>
